<svg width="40" height="40" viewBox="0 0 40 40" fill="none" xmlns="http://www.w3.org/2000/svg">
<circle opacity="0.2" cx="20" cy="20" r="20" fill="black"/>
<path d="M26.8398 23.0001C27.6698 23.0001 28.3398 23.6701 28.3398 24.5001C28.3398 25.3301 27.6698 26.0001 26.8398 26.0001H24.3398H26.3398C27.1698 26.0001 27.8398 26.6701 27.8398 27.5001C27.8398 28.3301 27.1698 29.0001 26.3398 29.0001H25.3398H17.3398C14.0298 29.0001 11.3398 26.3001 11.3398 22.9801C11.3398 20.2801 13.1098 17.9901 15.5598 17.2301C16.7898 16.8401 17.7098 15.8001 18.1098 14.5601L19.0298 11.7301C19.1898 11.0801 19.8498 10.9101 20.5098 11.0301C21.5598 11.2101 22.4498 12.5601 22.4498 15.0001L22.3398 17.0001H27.8398C28.6698 17.0001 29.3398 17.6701 29.3398 18.5001C29.3398 19.3301 28.6698 20.0001 27.8398 20.0001H25.3398H27.3398C28.1698 20.0001 28.8398 20.6701 28.8398 21.5001C28.8398 22.3301 28.1698 23.0001 27.3398 23.0001H24.8398" fill="white" fill-opacity="0.6"/>
</svg>
