<svg width="70" height="71" viewBox="0 0 70 71" fill="none" xmlns="http://www.w3.org/2000/svg">
<path d="M57.6042 68.1179H12.3958C6.67973 68.1179 1.97581 63.3662 1.97581 57.3801V12.8074C1.97581 6.82126 6.67973 2.06956 12.3958 2.06956H57.6042C63.3203 2.06956 68.0242 6.82126 68.0242 12.8074V57.3801C68.0242 63.3662 63.3203 68.1179 57.6042 68.1179Z" stroke="url(#paint0_linear_22_100)" stroke-width="3.95161"/>
<path d="M17.5002 17.4404V17.4406L17.5073 17.4403C19.3418 17.3507 21.9644 17.2909 24.7918 17.2909C28.7022 17.2909 31.4905 18.3896 33.3009 20.1731C35.1116 21.9567 35.9627 24.4434 35.9627 27.2561C35.9627 30.9273 34.6512 33.5307 32.5606 35.2196C30.4652 36.9124 27.5702 37.7 24.3835 37.7C23.847 37.7 23.4849 37.6852 23.1616 37.6703C23.133 37.669 23.1047 37.6676 23.0766 37.6663C22.7863 37.6528 22.5162 37.6402 22.1668 37.6402H22.021V37.786V49.1536C22.021 49.2618 21.9999 49.2954 21.9895 49.306C21.9801 49.3157 21.9498 49.3368 21.846 49.3368H17.5293C17.4255 49.3368 17.3953 49.3157 17.3858 49.306C17.3754 49.2954 17.3543 49.2618 17.3543 49.1536V17.6237C17.3543 17.5446 17.3682 17.5002 17.3845 17.4779C17.3941 17.4649 17.4172 17.4404 17.5002 17.4404ZM22.021 33.1194V33.2522L22.1533 33.2646C22.8017 33.325 23.3331 33.325 24.4641 33.325H24.471C26.1466 33.325 27.809 33.0243 29.0556 32.1193C30.3109 31.208 31.121 29.7014 31.121 27.3459C31.121 25.4605 30.5418 24.018 29.4572 23.0491C28.3754 22.0825 26.8117 21.606 24.8793 21.606C23.7374 21.606 22.6547 21.6661 22.158 21.696L22.021 21.7043V21.8416V33.1194ZM48.0571 35.2825L48.0571 35.2826L48.0604 35.2842C50.2827 36.3866 51.7253 37.4587 52.6135 38.6331C53.4981 39.8027 53.8418 41.086 53.8418 42.6322C53.8418 44.9261 52.9905 46.6784 51.5719 47.8599C50.15 49.0441 48.1444 49.6659 45.821 49.6659C43.3572 49.6659 41.1689 49.1298 39.9739 48.4295L39.974 48.4293L39.9667 48.4255C39.9054 48.3941 39.8717 48.357 39.8501 48.3106C39.8264 48.2596 39.8127 48.1866 39.8127 48.0766V43.7689C39.8127 43.705 39.8206 43.6601 39.8304 43.6314C39.8344 43.6195 39.8383 43.6117 39.8412 43.6068C39.8511 43.6106 39.8686 43.6197 39.8929 43.6405L39.8993 43.646L39.9063 43.6506C41.7127 44.8656 43.9295 45.4105 45.821 45.4105C46.9617 45.4105 47.7935 45.1678 48.3429 44.7362C48.8975 44.3005 49.146 43.6867 49.146 42.9912C49.146 42.4285 48.97 41.8998 48.4249 41.3173C47.8868 40.7423 46.9874 40.1125 45.5402 39.3329L45.5402 39.3328L45.5348 39.3301C43.5161 38.347 42.1097 37.3567 41.207 36.2077C40.3081 35.0634 39.9002 33.7505 39.9002 32.1023C39.9002 30.2556 40.5997 28.575 41.9064 27.3553C43.2133 26.1354 45.1372 25.3678 47.6002 25.3678C50.0293 25.3678 51.8107 25.7524 52.7217 26.158C52.8906 26.2711 52.9377 26.4488 52.9377 26.598V30.6066C52.9377 30.7005 52.909 30.7475 52.886 30.7662C52.8685 30.7803 52.827 30.8001 52.7362 30.7722C51.4251 29.9828 49.451 29.5035 47.6002 29.5035C46.4526 29.5035 45.6639 29.8018 45.1599 30.2425C44.6554 30.6837 44.4502 31.2559 44.4502 31.7732C44.4502 32.0477 44.4846 32.3101 44.5894 32.574C44.6942 32.8377 44.8659 33.0948 45.13 33.3637C45.6539 33.8972 46.554 34.4893 48.0571 35.2825Z" fill="url(#paint1_linear_22_100)" stroke="url(#paint2_linear_22_100)" stroke-width="0.291667"/>
<defs>
<linearGradient id="paint0_linear_22_100" x1="62.4304" y1="35.0937" x2="4.27859e-07" y2="35.0937" gradientUnits="userSpaceOnUse">
<stop offset="0.197917" stop-color="#E83E36"/>
<stop offset="0.9375" stop-color="#2679F6"/>
</linearGradient>
<linearGradient id="paint1_linear_22_100" x1="50.0105" y1="33.4783" x2="17.2085" y2="33.4783" gradientUnits="userSpaceOnUse">
<stop offset="0.197917" stop-color="#E83E36"/>
<stop offset="0.9375" stop-color="#2679F6"/>
</linearGradient>
<linearGradient id="paint2_linear_22_100" x1="50.0105" y1="33.4783" x2="17.2085" y2="33.4783" gradientUnits="userSpaceOnUse">
<stop offset="0.197917" stop-color="#E83E36"/>
<stop offset="0.9375" stop-color="#2679F6"/>
</linearGradient>
</defs>
</svg>
