<svg width="70" height="71" viewBox="0 0 70 71" fill="none" xmlns="http://www.w3.org/2000/svg">
<path d="M36.5426 20.8789L28.7927 33.994L37.0593 47.904C37.1109 48.01 37.1368 48.116 37.1109 48.222C37.0851 48.3279 36.9818 48.2485 36.8268 48.275H30.911C30.4977 48.275 30.2136 48.2485 30.0327 47.9835C29.4902 46.8707 28.9219 45.7844 28.3794 44.6716C27.8369 43.5853 27.2428 42.4725 26.6228 41.3332C26.0028 40.1939 25.3828 39.0546 24.7628 37.8888H24.7112C24.1687 39.0281 23.5745 40.1674 22.9804 41.3067C22.3862 42.446 21.792 43.5853 21.2237 44.6981C20.6296 45.8109 20.0354 46.9502 19.4413 48.0365C19.3379 48.3015 19.1313 48.3279 18.8471 48.3279H13.1639C13.0605 48.3279 12.983 48.3809 12.983 48.2485C12.9572 48.1425 12.983 48.0365 13.0347 47.957L21.0687 34.4444L13.2414 20.8524C13.1639 20.7464 13.138 20.6404 13.1897 20.5874C13.2414 20.5079 13.3447 20.4814 13.448 20.4814H19.3121C19.4413 20.4814 19.5704 20.5079 19.6737 20.5344C19.7771 20.5874 19.8546 20.6669 19.9321 20.7729C20.4229 21.9122 20.9912 23.0515 21.5854 24.1908C22.2054 25.3301 22.7995 26.4429 23.4453 27.5557C24.0653 28.6685 24.6337 29.7813 25.1761 30.9206H25.2278C25.7703 29.7548 26.3386 28.6155 26.9069 27.5027C27.4753 26.3899 28.0694 25.2771 28.6636 24.1643C29.2577 23.0515 29.8261 21.9122 30.3944 20.8259C30.4202 20.7199 30.4719 20.6139 30.5494 20.5609C30.6527 20.5079 30.756 20.4814 30.8852 20.5079H36.3359C36.4651 20.4814 36.5943 20.5609 36.6201 20.6934C36.6459 20.7199 36.5943 20.8259 36.5426 20.8789Z" fill="url(#paint0_linear_22_128)"/>
<path d="M48.4777 48.8314C46.566 48.8579 44.6544 48.4604 42.9236 47.6391C41.2961 46.8707 39.9528 45.5989 39.0229 44.0357C38.067 42.4195 37.602 40.4059 37.602 37.9948C37.5762 36.0342 38.067 34.1 39.0229 32.4043C40.0045 30.6821 41.4253 29.2514 43.1303 28.2975C44.9386 27.2642 47.1085 26.7608 49.666 26.7608C49.7952 26.7608 49.976 26.7608 50.2085 26.7873C50.441 26.8138 50.6993 26.8138 51.0093 26.8403V18.4678C51.0093 18.2823 51.0868 18.1764 51.2676 18.1764H56.5117C56.6409 18.1499 56.7442 18.2558 56.77 18.3618C56.77 18.3883 56.77 18.4148 56.77 18.4148V43.6383C56.77 44.1152 56.7959 44.6451 56.8217 45.228C56.8734 45.7844 56.8992 46.3143 56.925 46.7647C56.925 46.9502 56.8475 47.1092 56.6667 47.1887C55.3234 47.7715 53.9026 48.1955 52.4559 48.4604C51.1385 48.6989 49.821 48.8314 48.4777 48.8314ZM51.0093 43.5323V31.8744C50.7768 31.8214 50.5443 31.7684 50.3118 31.7419C50.0276 31.7154 49.7435 31.6889 49.4593 31.6889C48.4518 31.6889 47.4444 31.9009 46.5402 32.3778C45.6619 32.8282 44.9127 33.4906 44.3444 34.3385C43.7761 35.1863 43.4919 36.3256 43.4919 37.7034C43.4661 38.6307 43.6211 39.558 43.9311 40.4324C44.1894 41.1477 44.5769 41.7836 45.0936 42.3135C45.5844 42.7904 46.1786 43.1614 46.8502 43.3733C47.5477 43.6118 48.271 43.7178 48.9943 43.7178C49.3818 43.7178 49.7435 43.6913 50.0793 43.6648C50.4151 43.6913 50.6993 43.6383 51.0093 43.5323Z" fill="url(#paint1_linear_22_128)"/>
<path d="M12.3958 2.28125H57.6042C63.1983 2.28125 67.8125 6.93309 67.8125 12.8074V57.3801C67.8125 63.2544 63.1983 67.9062 57.6042 67.9062H12.3958C6.80167 67.9062 2.1875 63.2544 2.1875 57.3801V12.8074C2.1875 6.93309 6.80167 2.28125 12.3958 2.28125Z" stroke="url(#paint2_linear_22_128)" stroke-width="4.375"/>
<defs>
<linearGradient id="paint0_linear_22_128" x1="34.5097" y1="34.4099" x2="12.9729" y2="34.4099" gradientUnits="userSpaceOnUse">
<stop offset="0.197917" stop-color="#E83E36"/>
<stop offset="0.9375" stop-color="#2679F6"/>
</linearGradient>
<linearGradient id="paint1_linear_22_128" x1="54.8354" y1="33.5024" x2="37.6011" y2="33.5024" gradientUnits="userSpaceOnUse">
<stop offset="0.197917" stop-color="#E83E36"/>
<stop offset="0.9375" stop-color="#2679F6"/>
</linearGradient>
<linearGradient id="paint2_linear_22_128" x1="62.4304" y1="35.0937" x2="4.27859e-07" y2="35.0937" gradientUnits="userSpaceOnUse">
<stop offset="0.197917" stop-color="#E83E36"/>
<stop offset="0.9375" stop-color="#2679F6"/>
</linearGradient>
</defs>
</svg>
