<svg width="13" height="15" viewBox="0 0 13 15" fill="none" xmlns="http://www.w3.org/2000/svg">
<g clip-path="url(#clip0_58_165)">
<path d="M6.17683 4.59888C4.47481 4.59888 3.10196 5.97986 3.10196 7.69196C3.10196 9.40406 4.47481 10.785 6.17683 10.785C7.87886 10.785 9.25171 9.40406 9.25171 7.69196C9.25171 5.97986 7.87886 4.59888 6.17683 4.59888ZM6.17683 9.70287C5.07694 9.70287 4.17776 8.80106 4.17776 7.69196C4.17776 6.58287 5.07427 5.68105 6.17683 5.68105C7.2794 5.68105 8.17591 6.58287 8.17591 7.69196C8.17591 8.80106 7.27673 9.70287 6.17683 9.70287ZM10.0947 4.47236C10.0947 4.87346 9.77356 5.19381 9.37749 5.19381C8.97875 5.19381 8.66029 4.87077 8.66029 4.47236C8.66029 4.07394 8.98142 3.75091 9.37749 3.75091C9.77356 3.75091 10.0947 4.07394 10.0947 4.47236ZM12.1312 5.20457C12.0857 4.23815 11.8663 3.3821 11.1625 2.67681C10.4613 1.97151 9.61031 1.75077 8.64958 1.70231C7.65941 1.64578 4.69158 1.64578 3.70141 1.70231C2.74336 1.74807 1.89234 1.96882 1.18852 2.67411C0.484699 3.37941 0.267932 4.23546 0.219761 5.20188C0.163563 6.19791 0.163563 9.18332 0.219761 10.1793C0.265256 11.1458 0.484699 12.0018 1.18852 12.7071C1.89234 13.4124 2.74068 13.6332 3.70141 13.6816C4.69158 13.7381 7.65941 13.7381 8.64958 13.6816C9.61031 13.6358 10.4613 13.4151 11.1625 12.7071C11.8636 12.0018 12.0831 11.1458 12.1312 10.1793C12.1874 9.18332 12.1874 6.20061 12.1312 5.20457ZM10.852 11.2481C10.6433 11.7757 10.2392 12.1822 9.71201 12.3948C8.92255 12.7098 7.04925 12.6371 6.17683 12.6371C5.30442 12.6371 3.42845 12.7071 2.64166 12.3948C2.11714 12.1849 1.71304 11.7784 1.50163 11.2481C1.18852 10.4539 1.26078 8.56955 1.26078 7.69196C1.26078 6.81438 1.1912 4.9273 1.50163 4.13586C1.71037 3.60823 2.11446 3.20174 2.64166 2.98908C3.43112 2.67411 5.30442 2.7468 6.17683 2.7468C7.04925 2.7468 8.92522 2.67681 9.71201 2.98908C10.2365 3.19905 10.6406 3.60554 10.852 4.13586C11.1651 4.92999 11.0929 6.81438 11.0929 7.69196C11.0929 8.56955 11.1651 10.4566 10.852 11.2481Z" fill="white"/>
</g>
<defs>
<clipPath id="clip0_58_165">
<rect width="12.1166" height="13.7829" fill="white" transform="translate(0.21167 0.803223)"/>
</clipPath>
</defs>
</svg>
