<svg width="175" height="188" viewBox="0 0 175 188" fill="none" xmlns="http://www.w3.org/2000/svg">
<g clip-path="url(#clip0_127_19)">
<path d="M86.8729 0C42.4375 0 45.2083 20.8053 45.2083 20.8053L45.2594 42.3627H87.6531V48.833H28.4375C28.4375 48.833 0 45.3472 0 93.7572C0 142.167 24.8135 140.444 24.8135 140.444H39.6156V117.986C39.6156 117.986 38.8208 91.1957 64.0427 91.1957H106.086C106.086 91.1957 129.711 91.603 129.711 66.5363V25.0823C129.711 25.0823 133.292 0 86.8656 0H86.8729ZM63.4958 14.4917C67.7104 14.4917 71.1229 18.1733 71.1229 22.7323C71.1229 27.2835 67.7104 30.9652 63.4958 30.9652C59.274 30.9652 55.8688 27.2835 55.8688 22.7323C55.8688 18.1733 59.274 14.4917 63.4958 14.4917Z" fill="url(#paint0_linear_127_19)"/>
<path d="M88.1343 188C132.555 188 129.784 167.195 129.784 167.195L129.733 145.637H87.3395V139.167H146.57C146.57 139.167 175.007 142.653 175.007 94.2429C175.007 45.8329 150.186 47.5562 150.186 47.5562H135.384V70.0144C135.384 70.0144 136.179 96.8044 110.957 96.8044H68.9207C68.9207 96.8044 45.2957 96.397 45.2957 121.464V162.918C45.2957 162.918 41.7082 188 88.1343 188ZM111.511 173.508C107.289 173.508 103.884 169.827 103.884 165.268C103.884 160.717 107.289 157.035 111.511 157.035C115.726 157.035 119.138 160.717 119.138 165.268C119.138 169.827 115.726 173.508 111.511 173.508Z" fill="url(#paint1_linear_127_19)"/>
</g>
<defs>
<linearGradient id="paint0_linear_127_19" x1="115.742" y1="70.2256" x2="7.93223e-07" y2="70.2256" gradientUnits="userSpaceOnUse">
<stop offset="0.197917" stop-color="#E83E36"/>
<stop offset="0.9375" stop-color="#2679F6"/>
</linearGradient>
<linearGradient id="paint1_linear_127_19" x1="160.974" y1="117.774" x2="45.2314" y2="117.774" gradientUnits="userSpaceOnUse">
<stop offset="0.197917" stop-color="#E83E36"/>
<stop offset="0.9375" stop-color="#2679F6"/>
</linearGradient>
<clipPath id="clip0_127_19">
<rect width="175" height="188" fill="white"/>
</clipPath>
</defs>
</svg>
