<svg width="51" height="51" viewBox="0 0 51 51" fill="none" xmlns="http://www.w3.org/2000/svg">
<path d="M8.83337 11.3939C8.83337 10.2433 9.76611 9.31055 10.9167 9.31055H40.0834C41.234 9.31055 42.1667 10.2433 42.1667 11.3939V15.5605C42.1667 16.7111 41.234 17.6439 40.0834 17.6439H10.9167C9.76611 17.6439 8.83337 16.7111 8.83337 15.5605V11.3939Z" stroke="url(#paint0_linear_22_65)" stroke-width="3" stroke-linecap="round" stroke-linejoin="round"/>
<path d="M8.83337 28.0605C8.83337 26.91 9.76611 25.9772 10.9167 25.9772H23.4167C24.5673 25.9772 25.5 26.91 25.5 28.0605V40.5605C25.5 41.7111 24.5673 42.6439 23.4167 42.6439H10.9167C9.76611 42.6439 8.83337 41.7111 8.83337 40.5605V28.0605Z" stroke="url(#paint1_linear_22_65)" stroke-width="3" stroke-linecap="round" stroke-linejoin="round"/>
<path d="M33.8334 28.0605C33.8334 26.91 34.7661 25.9772 35.9167 25.9772H40.0834C41.234 25.9772 42.1667 26.91 42.1667 28.0605V40.5605C42.1667 41.7111 41.234 42.6439 40.0834 42.6439H35.9167C34.7661 42.6439 33.8334 41.7111 33.8334 40.5605V28.0605Z" stroke="url(#paint2_linear_22_65)" stroke-width="3" stroke-linecap="round" stroke-linejoin="round"/>
<defs>
<linearGradient id="paint0_linear_22_65" x1="38.5621" y1="25.9772" x2="8.83337" y2="25.9772" gradientUnits="userSpaceOnUse">
<stop offset="0.197917" stop-color="#E83E36"/>
<stop offset="0.9375" stop-color="#2679F6"/>
</linearGradient>
<linearGradient id="paint1_linear_22_65" x1="38.5621" y1="25.9772" x2="8.83337" y2="25.9772" gradientUnits="userSpaceOnUse">
<stop offset="0.197917" stop-color="#E83E36"/>
<stop offset="0.9375" stop-color="#2679F6"/>
</linearGradient>
<linearGradient id="paint2_linear_22_65" x1="38.5621" y1="25.9772" x2="8.83337" y2="25.9772" gradientUnits="userSpaceOnUse">
<stop offset="0.197917" stop-color="#E83E36"/>
<stop offset="0.9375" stop-color="#2679F6"/>
</linearGradient>
</defs>
</svg>
