<svg width="148" height="24" viewBox="0 0 148 24" fill="none" xmlns="http://www.w3.org/2000/svg">
<path d="M12.3333 2.09375L15.552 8.61458L22.75 9.66667L17.5416 14.7396L18.7708 21.9062L12.3333 18.5208L5.89579 21.9062L7.12496 14.7396L1.91663 9.66667L9.11454 8.61458L12.3333 2.09375Z" fill="white" stroke="white" stroke-width="3" stroke-linecap="round" stroke-linejoin="round"/>
<path d="M43.1667 2.09375L46.3854 8.61458L53.5833 9.66667L48.375 14.7396L49.6042 21.9062L43.1667 18.5208L36.7292 21.9062L37.9583 14.7396L32.75 9.66667L39.9479 8.61458L43.1667 2.09375Z" fill="white" stroke="white" stroke-width="3" stroke-linecap="round" stroke-linejoin="round"/>
<path d="M73.9999 2.09375L77.2187 8.61458L84.4166 9.66667L79.2083 14.7396L80.4374 21.9062L73.9999 18.5208L67.5624 21.9062L68.7916 14.7396L63.5833 9.66667L70.7812 8.61458L73.9999 2.09375Z" fill="white" stroke="white" stroke-width="3" stroke-linecap="round" stroke-linejoin="round"/>
<path d="M104.833 2.09375L108.052 8.61458L115.25 9.66667L110.042 14.7396L111.271 21.9062L104.833 18.5208L98.3958 21.9062L99.625 14.7396L94.4166 9.66667L101.615 8.61458L104.833 2.09375Z" stroke="white" stroke-width="3" stroke-linecap="round" stroke-linejoin="round"/>
<path d="M135.667 2.09375L138.885 8.61458L146.083 9.66667L140.875 14.7396L142.104 21.9062L135.667 18.5208L129.229 21.9062L130.458 14.7396L125.25 9.66667L132.448 8.61458L135.667 2.09375Z" stroke="white" stroke-width="3" stroke-linecap="round" stroke-linejoin="round"/>
</svg>
