<svg width="51" height="51" viewBox="0 0 51 51" fill="none" xmlns="http://www.w3.org/2000/svg">
<path d="M23.4167 12.2774V40.1065C23.4167 42.1314 21.7752 43.7728 19.7504 43.7728C18.2009 43.7728 16.8188 42.7988 16.2977 41.3396L11.826 28.5288M38 27.1062C41.4518 27.1062 44.25 24.3079 44.25 20.8562C44.25 17.4044 41.4518 14.6062 38 14.6062M11.826 28.5288C8.84229 27.2605 6.75 24.3027 6.75 20.8562C6.75 16.2538 10.481 12.5228 15.0833 12.5228H18.9002C27.4432 12.5228 34.7852 9.9518 38 6.27283L38 35.4395C34.7852 31.7605 27.4432 29.1895 18.9002 29.1895L15.0833 29.1895C13.9275 29.1895 12.8266 28.9542 11.826 28.5288Z" stroke="url(#paint0_linear_22_57)" stroke-width="3" stroke-linecap="round" stroke-linejoin="round"/>
<defs>
<linearGradient id="paint0_linear_22_57" x1="40.1949" y1="25.0228" x2="6.75" y2="25.0228" gradientUnits="userSpaceOnUse">
<stop offset="0.197917" stop-color="#E83E36"/>
<stop offset="0.9375" stop-color="#2679F6"/>
</linearGradient>
</defs>
</svg>
