<svg width="13" height="13" viewBox="0 0 13 13" fill="none" xmlns="http://www.w3.org/2000/svg">
<g clip-path="url(#clip0_58_160)">
<path d="M3.55175 12.0546V4.30519H0.981364V12.0546H3.55175ZM2.26689 3.2465C3.16323 3.2465 3.72116 2.65144 3.72116 1.9078C3.70446 1.1474 3.16326 0.568848 2.2839 0.568848C1.40467 0.568848 0.829712 1.14741 0.829712 1.9078C0.829712 2.65147 1.3875 3.2465 2.25011 3.2465H2.26681H2.26689ZM4.97445 12.0546H7.54484V7.72697C7.54484 7.49536 7.56154 7.26399 7.62942 7.09842C7.81524 6.63567 8.23817 6.15639 8.94822 6.15639C9.87833 6.15639 10.2504 6.86704 10.2504 7.9088V12.0546H12.8207V7.61112C12.8207 5.2308 11.5526 4.12326 9.8614 4.12326C8.47478 4.12326 7.86597 4.89995 7.52774 5.42895H7.5449V4.30503H4.97451C5.00824 5.0322 4.97451 12.0545 4.97451 12.0545L4.97445 12.0546Z" fill="white"/>
</g>
<defs>
<clipPath id="clip0_58_160">
<rect width="12.1166" height="11.4858" fill="white" transform="translate(0.861816 0.568848)"/>
</clipPath>
</defs>
</svg>
