<svg width="77" height="59" viewBox="0 0 77 59" fill="none" xmlns="http://www.w3.org/2000/svg">
<path d="M64.4817 4.81276C59.6268 2.58514 54.4207 0.943932 48.9774 0.00394313C48.8783 -0.0141984 48.7792 0.0311382 48.7282 0.121813C48.0586 1.31266 47.317 2.86622 46.7976 4.08731C40.943 3.21081 35.1184 3.21081 29.3838 4.08731C28.8644 2.83908 28.0958 1.31266 27.4233 0.121813C27.3722 0.0341636 27.2732 -0.011173 27.174 0.00394313C21.7337 0.940928 16.5276 2.58214 11.6698 4.81276C11.6277 4.83089 11.5917 4.86114 11.5677 4.90041C1.69287 19.6533 -1.01228 34.0435 0.314776 48.2553C0.32078 48.3249 0.359811 48.3914 0.413854 48.4336C6.92902 53.2182 13.2401 56.1229 19.4339 58.0482C19.533 58.0785 19.6381 58.0422 19.7012 57.9606C21.1663 55.9597 22.4724 53.85 23.5922 51.6314C23.6583 51.5015 23.5952 51.3473 23.4601 51.2959C21.3885 50.5101 19.4159 49.552 17.5184 48.4639C17.3683 48.3762 17.3563 48.1616 17.4944 48.0588C17.8937 47.7596 18.2931 47.4483 18.6744 47.1339C18.7433 47.0765 18.8395 47.0644 18.9206 47.1007C31.3864 52.7921 44.8821 52.7921 57.2008 47.1007C57.2819 47.0614 57.3781 47.0735 57.45 47.1309C57.8314 47.4453 58.2307 47.7596 58.633 48.0588C58.7711 48.1616 58.7621 48.3762 58.612 48.4639C56.7145 49.5731 54.7419 50.5101 52.6673 51.2929C52.5322 51.3443 52.4721 51.5015 52.5382 51.6314C53.6821 53.8469 54.9881 55.9566 56.4262 57.9576C56.4863 58.0422 56.5944 58.0785 56.6935 58.0482C62.9174 56.1229 69.2284 53.2182 75.7435 48.4336C75.8006 48.3914 75.8367 48.3279 75.8427 48.2583C77.4309 31.8279 73.1825 17.5557 64.5807 4.90341C64.5597 4.86114 64.5237 4.83089 64.4817 4.81276ZM25.4538 39.6018C21.7007 39.6018 18.6083 36.1562 18.6083 31.9247C18.6083 27.6931 21.6407 24.2475 25.4538 24.2475C29.2967 24.2475 32.3592 27.7234 32.2991 31.9247C32.2991 36.1562 29.2667 39.6018 25.4538 39.6018ZM50.7638 39.6018C47.0108 39.6018 43.9184 36.1562 43.9184 31.9247C43.9184 27.6931 46.9507 24.2475 50.7638 24.2475C54.6068 24.2475 57.6692 27.7234 57.6093 31.9247C57.6093 36.1562 54.6068 39.6018 50.7638 39.6018Z" fill="url(#paint0_linear_226_42)"/>
<defs>
<linearGradient id="paint0_linear_226_42" x1="67.9338" y1="29.0293" x2="4.65576e-07" y2="29.0293" gradientUnits="userSpaceOnUse">
<stop offset="0.197917" stop-color="#E83E36"/>
<stop offset="0.9375" stop-color="#2679F6"/>
</linearGradient>
</defs>
</svg>
