<svg width="70" height="73" viewBox="0 0 70 73" fill="none" xmlns="http://www.w3.org/2000/svg">
<rect y="0.09375" width="70" height="72" rx="15" fill="#1C1E22"/>
<path d="M21.6801 22.7738C21.6801 21.0074 22.3817 19.3134 23.6307 18.0644C24.8797 16.8154 26.5737 16.1138 28.3401 16.1138H35.0001V29.4338H28.3401C26.5737 29.4338 24.8797 28.7321 23.6307 27.4831C22.3817 26.2341 21.6801 24.5401 21.6801 22.7738Z" stroke="url(#paint0_linear_22_112)" stroke-width="3.80571" stroke-linecap="round" stroke-linejoin="round"/>
<path d="M34.9999 16.1138H41.6599C42.5345 16.1138 43.4005 16.286 44.2085 16.6207C45.0166 16.9554 45.7508 17.446 46.3692 18.0644C46.9876 18.6829 47.4782 19.4171 47.8129 20.2251C48.1476 21.0331 48.3199 21.8992 48.3199 22.7738C48.3199 23.6484 48.1476 24.5144 47.8129 25.3224C47.4782 26.1305 46.9876 26.8647 46.3692 27.4831C45.7508 28.1015 45.0166 28.5921 44.2085 28.9268C43.4005 29.2615 42.5345 29.4338 41.6599 29.4338H34.9999V16.1138Z" stroke="url(#paint1_linear_22_112)" stroke-width="3.80571" stroke-linecap="round" stroke-linejoin="round"/>
<path d="M34.9999 36.0938C34.9999 35.2192 35.1721 34.3532 35.5068 33.5452C35.8415 32.7371 36.3321 32.0029 36.9505 31.3845C37.569 30.7661 38.3032 30.2755 39.1112 29.9408C39.9192 29.6061 40.7853 29.4338 41.6599 29.4338C42.5345 29.4338 43.4005 29.6061 44.2085 29.9408C45.0166 30.2755 45.7508 30.7661 46.3692 31.3845C46.9876 32.0029 47.4782 32.7371 47.8129 33.5452C48.1476 34.3532 48.3199 35.2192 48.3199 36.0938C48.3199 36.9684 48.1476 37.8345 47.8129 38.6425C47.4782 39.4505 46.9876 40.1847 46.3692 40.8032C45.7508 41.4216 45.0166 41.9122 44.2085 42.2469C43.4005 42.5816 42.5345 42.7538 41.6599 42.7538C40.7853 42.7538 39.9192 42.5816 39.1112 42.2469C38.3032 41.9122 37.569 41.4216 36.9505 40.8032C36.3321 40.1847 35.8415 39.4505 35.5068 38.6425C35.1721 37.8345 34.9999 36.9684 34.9999 36.0938V36.0938Z" stroke="url(#paint2_linear_22_112)" stroke-width="3.80571" stroke-linecap="round" stroke-linejoin="round"/>
<path d="M21.6801 49.4138C21.6801 47.6474 22.3817 45.9534 23.6307 44.7045C24.8797 43.4555 26.5737 42.7538 28.3401 42.7538H35.0001V49.4138C35.0001 51.1801 34.2984 52.8741 33.0494 54.1231C31.8004 55.3721 30.1064 56.0738 28.3401 56.0738C26.5737 56.0738 24.8797 55.3721 23.6307 54.1231C22.3817 52.8741 21.6801 51.1801 21.6801 49.4138Z" stroke="url(#paint3_linear_22_112)" stroke-width="3.80571" stroke-linecap="round" stroke-linejoin="round"/>
<path d="M21.6801 36.0937C21.6801 34.3274 22.3817 32.6334 23.6307 31.3844C24.8797 30.1354 26.5737 29.4337 28.3401 29.4337H35.0001V42.7537H28.3401C26.5737 42.7537 24.8797 42.052 23.6307 40.803C22.3817 39.5541 21.6801 37.8601 21.6801 36.0937Z" stroke="url(#paint4_linear_22_112)" stroke-width="3.80571" stroke-linecap="round" stroke-linejoin="round"/>
<defs>
<linearGradient id="paint0_linear_22_112" x1="33.5597" y1="22.7738" x2="21.6801" y2="22.7738" gradientUnits="userSpaceOnUse">
<stop offset="0.197917" stop-color="#E83E36"/>
<stop offset="0.9375" stop-color="#2679F6"/>
</linearGradient>
<linearGradient id="paint1_linear_22_112" x1="46.8795" y1="22.7738" x2="34.9999" y2="22.7738" gradientUnits="userSpaceOnUse">
<stop offset="0.197917" stop-color="#E83E36"/>
<stop offset="0.9375" stop-color="#2679F6"/>
</linearGradient>
<linearGradient id="paint2_linear_22_112" x1="46.8795" y1="36.0938" x2="34.9999" y2="36.0938" gradientUnits="userSpaceOnUse">
<stop offset="0.197917" stop-color="#E83E36"/>
<stop offset="0.9375" stop-color="#2679F6"/>
</linearGradient>
<linearGradient id="paint3_linear_22_112" x1="33.5597" y1="49.4138" x2="21.6801" y2="49.4138" gradientUnits="userSpaceOnUse">
<stop offset="0.197917" stop-color="#E83E36"/>
<stop offset="0.9375" stop-color="#2679F6"/>
</linearGradient>
<linearGradient id="paint4_linear_22_112" x1="33.5597" y1="36.0937" x2="21.6801" y2="36.0937" gradientUnits="userSpaceOnUse">
<stop offset="0.197917" stop-color="#E83E36"/>
<stop offset="0.9375" stop-color="#2679F6"/>
</linearGradient>
</defs>
</svg>
