<svg width="200" height="196" viewBox="0 0 200 196" fill="none" xmlns="http://www.w3.org/2000/svg">
<path d="M100 0.441406C109.18 0.441406 118.034 1.61328 126.562 3.95703C135.091 6.30078 143.034 9.6862 150.391 14.1133C157.747 18.5404 164.486 23.7487 170.605 29.7383C176.725 35.7279 181.966 42.4661 186.328 49.9531C190.69 57.4401 194.043 65.4154 196.387 73.8789C198.73 82.3424 199.935 91.1966 200 100.441C200 111.184 198.372 121.535 195.117 131.496C191.862 141.457 187.207 150.604 181.152 158.938C175.098 167.271 167.904 174.562 159.57 180.812C151.237 187.062 141.927 191.913 131.641 195.363C131.445 195.428 131.152 195.461 130.762 195.461C130.371 195.461 130.078 195.493 129.883 195.559C128.32 195.559 127.083 195.103 126.172 194.191C125.26 193.28 124.805 192.076 124.805 190.578V176.906C124.805 172.414 124.837 167.824 124.902 163.137C124.902 159.816 124.414 156.464 123.438 153.078C122.461 149.693 120.703 146.861 118.164 144.582C125.716 143.736 132.324 142.206 137.988 139.992C143.652 137.779 148.405 134.654 152.246 130.617C156.087 126.581 158.952 121.698 160.84 115.969C162.728 110.24 163.704 103.339 163.77 95.2656C163.77 90.1875 162.923 85.4023 161.23 80.9102C159.538 76.418 156.966 72.2513 153.516 68.4102C154.232 66.5872 154.753 64.6992 155.078 62.7461C155.404 60.793 155.566 58.8398 155.566 56.8867C155.566 54.3477 155.306 51.8411 154.785 49.3672C154.264 46.8932 153.516 44.4193 152.539 41.9453C152.214 41.8151 151.855 41.75 151.465 41.75C151.074 41.75 150.716 41.75 150.391 41.75C148.307 41.75 146.126 42.0755 143.848 42.7266C141.569 43.3776 139.323 44.224 137.109 45.2656C134.896 46.3073 132.715 47.4466 130.566 48.6836C128.418 49.9206 126.562 51.0924 125 52.1992C116.862 49.9206 108.529 48.7812 100 48.7812C91.4714 48.7812 83.138 49.9206 75 52.1992C73.3724 51.0924 71.5169 49.9206 69.4336 48.6836C67.3503 47.4466 65.2018 46.3398 62.9883 45.3633C60.7747 44.3867 58.4961 43.5404 56.1523 42.8242C53.8086 42.1081 51.6276 41.75 49.6094 41.75H48.5352C48.1445 41.75 47.7865 41.8151 47.4609 41.9453C46.5495 44.3542 45.8333 46.7956 45.3125 49.2695C44.7917 51.7435 44.4987 54.2826 44.4336 56.8867C44.4336 58.8398 44.5964 60.793 44.9219 62.7461C45.2474 64.6992 45.7682 66.5872 46.4844 68.4102C43.0339 72.1862 40.4622 76.3203 38.7695 80.8125C37.0768 85.3047 36.2305 90.1224 36.2305 95.2656C36.2305 103.208 37.1745 110.077 39.0625 115.871C40.9505 121.665 43.8151 126.548 47.6562 130.52C51.4974 134.491 56.25 137.648 61.9141 139.992C67.5781 142.336 74.1862 143.898 81.7383 144.68C79.8503 146.372 78.418 148.391 77.4414 150.734C76.4648 153.078 75.7812 155.52 75.3906 158.059C73.6328 158.905 71.7773 159.556 69.8242 160.012C67.8711 160.467 65.918 160.695 63.9648 160.695C59.7982 160.695 56.3477 159.719 53.6133 157.766C50.8789 155.812 48.4375 153.143 46.2891 149.758C45.5078 148.521 44.5638 147.284 43.457 146.047C42.3503 144.81 41.1458 143.703 39.8438 142.727C38.5417 141.75 37.1419 140.969 35.6445 140.383C34.1471 139.797 32.5846 139.471 30.957 139.406H29.7852C29.2643 139.406 28.776 139.504 28.3203 139.699C27.8646 139.895 27.4089 140.09 26.9531 140.285C26.4974 140.48 26.3021 140.806 26.3672 141.262C26.3672 142.043 26.8229 142.792 27.7344 143.508C28.6458 144.224 29.3945 144.81 29.9805 145.266L30.2734 145.461C31.7057 146.568 32.9427 147.609 33.9844 148.586C35.026 149.562 36.0026 150.637 36.9141 151.809C37.8255 152.98 38.5742 154.217 39.1602 155.52C39.7461 156.822 40.4948 158.352 41.4062 160.109C43.6198 165.188 46.7122 168.866 50.6836 171.145C54.6549 173.423 59.4401 174.595 65.0391 174.66C66.7318 174.66 68.4245 174.562 70.1172 174.367C71.8099 174.172 73.5026 173.879 75.1953 173.488V190.48C75.1953 192.043 74.7396 193.28 73.8281 194.191C72.9167 195.103 71.6471 195.559 70.0195 195.559H69.2383C68.9128 195.559 68.6198 195.493 68.3594 195.363C58.138 192.043 48.8281 187.258 40.4297 181.008C32.0312 174.758 24.8372 167.434 18.8477 159.035C12.8581 150.637 8.23568 141.457 4.98047 131.496C1.72526 121.535 0.0651042 111.184 0 100.441C0 91.2617 1.17188 82.4076 3.51562 73.8789C5.85938 65.3503 9.24479 57.4076 13.6719 50.0508C18.099 42.694 23.3073 35.9557 29.2969 29.8359C35.2865 23.7161 42.0247 18.4753 49.5117 14.1133C56.9987 9.7513 64.974 6.39844 73.4375 4.05469C81.901 1.71094 90.7552 0.50651 100 0.441406Z" fill="url(#paint0_linear_224_77)"/>
<defs>
<linearGradient id="paint0_linear_224_77" x1="178.373" y1="97.9999" x2="1.22245e-06" y2="97.9999" gradientUnits="userSpaceOnUse">
<stop offset="0.197917" stop-color="#E83E36"/>
<stop offset="0.9375" stop-color="#2679F6"/>
</linearGradient>
</defs>
</svg>
