<svg width="75" height="76" viewBox="0 0 75 76" fill="none" xmlns="http://www.w3.org/2000/svg">
<path d="M59.9722 44.4785H40.1031V36.0704H72.1296C72.1896 36.4574 72.2484 36.887 72.3086 37.3688C72.4512 38.5091 72.5 39.5613 72.5 40.6881C72.5 45.3994 71.8064 49.6166 70.4435 53.462C69.0935 57.2709 67.0202 60.6061 64.2974 63.5742C61.2463 66.8164 57.6087 69.2951 53.3032 71.1053C49.0463 72.8952 44.0974 73.7925 38.465 73.7925C33.4326 73.7925 28.7298 72.9057 24.3358 71.0992C19.9075 69.2787 16.0376 66.7781 12.7096 63.5982C9.44202 60.4268 6.84509 56.6607 4.87454 52.2762C2.93886 47.9693 2 43.1369 2 37.8963C2 32.6742 2.98385 27.8798 4.88542 23.4916C6.80098 19.0711 9.39117 15.3147 12.7043 12.1477L12.7097 12.1426L12.715 12.1374C15.9766 8.97316 19.8375 6.52228 24.3286 4.69622C28.7811 2.88586 33.4871 2 38.465 2C44.2335 2 49.2703 2.99435 53.5687 4.92624C57.319 6.61177 60.624 8.83461 63.4945 11.5971L56.1921 18.676C54.0597 16.7477 51.7693 15.2052 49.348 14.0631C46.2575 12.6053 42.4768 11.9591 38.3099 11.9591C34.8642 11.9591 31.5604 12.5712 28.4678 13.8082C25.3928 15.0382 22.6898 16.7798 20.3776 19.0334C17.9937 21.3063 16.1403 24.0721 14.8042 27.2454C13.4479 30.4666 12.7863 33.9919 12.7863 37.8446C12.7863 41.6972 13.4479 45.2225 14.8042 48.4437C16.1472 51.6333 18.0075 54.3467 20.3865 56.6124C22.7364 58.8504 25.4842 60.6461 28.5712 61.8809C31.6694 63.1202 35.0257 63.73 38.5167 63.73C42.1497 63.73 45.4545 63.2433 48.3263 62.152C51.1248 61.0886 53.5605 59.6217 55.6139 57.7963L55.6254 57.7862L55.6367 57.7758C57.03 56.4986 58.2891 54.9477 59.3654 53.1349L59.3723 53.1234L59.379 53.1117C60.4499 51.2517 61.2892 49.2323 61.9007 47.0088L62.5965 44.4785H59.9722Z" stroke="url(#paint0_linear_226_45)" stroke-width="4"/>
<defs>
<linearGradient id="paint0_linear_226_45" x1="66.4438" y1="37.8962" x2="4.55364e-07" y2="37.8962" gradientUnits="userSpaceOnUse">
<stop offset="0.197917" stop-color="#E83E36"/>
<stop offset="0.9375" stop-color="#2679F6"/>
</linearGradient>
</defs>
</svg>
