<svg width="51" height="51" viewBox="0 0 51 51" fill="none" xmlns="http://www.w3.org/2000/svg">
<path d="M40.0833 22.9395H10.9167M40.0833 22.9395C42.3845 22.9395 44.25 24.805 44.25 27.1062V39.6062C44.25 41.9073 42.3845 43.7728 40.0833 43.7728H10.9167C8.61548 43.7728 6.75 41.9073 6.75 39.6062V27.1062C6.75 24.805 8.61548 22.9395 10.9167 22.9395M40.0833 22.9395V18.7728C40.0833 16.4716 38.2179 14.6062 35.9167 14.6062M10.9167 22.9395V18.7728C10.9167 16.4716 12.7821 14.6062 15.0833 14.6062M15.0833 14.6062V10.4395C15.0833 8.13831 16.9488 6.27283 19.25 6.27283H31.75C34.0512 6.27283 35.9167 8.13831 35.9167 10.4395V14.6062M15.0833 14.6062H35.9167" stroke="url(#paint0_linear_22_53)" stroke-width="3" stroke-linecap="round" stroke-linejoin="round"/>
<defs>
<linearGradient id="paint0_linear_22_53" x1="40.1949" y1="25.0228" x2="6.75" y2="25.0228" gradientUnits="userSpaceOnUse">
<stop offset="0.197917" stop-color="#E83E36"/>
<stop offset="0.9375" stop-color="#2679F6"/>
</linearGradient>
</defs>
</svg>
