<svg width="70" height="73" viewBox="0 0 70 73" fill="none" xmlns="http://www.w3.org/2000/svg">
<path d="M11.9205 12.6217C14.148 14.4374 14.9918 14.3092 19.197 14.0279L58.842 11.6497C59.6858 11.6497 58.9838 10.8059 58.7003 10.6642L52.1145 5.90541C50.8613 4.91991 49.1738 3.80841 45.9495 4.07616L7.57125 6.88866C6.165 7.01691 5.88375 7.72116 6.44625 8.28366L11.9205 12.6217ZM14.2987 21.8692V63.5752C14.2987 65.8139 15.4125 66.6577 17.9325 66.5159L61.5038 63.9959C64.0238 63.8542 64.3163 62.3197 64.3163 60.4927V19.0679C64.3163 17.2387 63.612 16.2667 62.0663 16.4084L16.5398 19.0679C14.8523 19.2097 14.301 20.0399 14.301 21.8579L14.2987 21.8692ZM57.3075 24.0944C57.5888 25.3612 57.3075 26.6144 56.0407 26.7674L53.9438 27.1904V57.9749C52.1145 58.9604 50.4405 59.5229 49.0455 59.5229C46.7955 59.5229 46.233 58.8187 44.5567 56.7217L30.8228 35.1599V56.0197L35.1698 57.0052C35.1698 57.0052 35.1698 59.5252 31.6665 59.5252L21.9983 60.0877C21.717 59.5252 21.9983 58.1189 22.9837 57.8489L25.5037 57.1447V29.5709L22.0005 29.2897C21.7193 28.0229 22.4235 26.2072 24.3787 26.0677L34.749 25.3634L49.0455 47.2064V27.8812L45.4005 27.4582C45.1192 25.9237 46.233 24.7987 47.6393 24.6682L57.3075 24.0944ZM4.34925 3.10641L44.2755 0.165662C49.1737 -0.257338 50.4405 0.0239122 53.5208 2.26266L66.2715 11.2267C68.3685 12.7612 69.0728 13.1842 69.0728 14.8604V63.9982C69.0728 67.0807 67.9477 68.8964 64.0327 69.1777L17.649 71.9789C14.7195 72.1207 13.3133 71.6977 11.7653 69.7402L2.37825 57.5519C0.702 55.3132 0 53.6369 0 51.6817V8.00691C0 5.48691 1.125 3.38991 4.347 3.10866L4.34925 3.10641Z" fill="url(#paint0_linear_225_87)"/>
<defs>
<linearGradient id="paint0_linear_225_87" x1="61.6034" y1="36.0019" x2="4.22192e-07" y2="36.0019" gradientUnits="userSpaceOnUse">
<stop offset="0.197917" stop-color="#E83E36"/>
<stop offset="0.9375" stop-color="#2679F6"/>
</linearGradient>
</defs>
</svg>
