<svg width="76" height="84" viewBox="0 0 76 84" fill="none" xmlns="http://www.w3.org/2000/svg">
<path d="M5.42116 34.705L34.9385 5.34764C42.8099 0.676059 49.0441 4.0411 51.0172 6.30756C55.5767 10.8672 66.4094 20.871 70.7755 26.2258C75.1416 31.5805 72.9983 38.5168 70.8554 40.8645L51.4172 60.3028L42.618 51.4236L60.5364 33.6651L42.618 15.6667L15.8204 42.5443L42.618 69.102L51.4172 60.3828L60.4564 69.342C59.6564 70.1419 57.7859 72.2752 51.0172 78.7011C44.6978 84.7006 36.5385 81.1542 33.9787 78.7011C26.9394 71.7417 11.3388 57.0707 5.74129 50.3037C0.381617 43.8242 3.2614 37.0248 5.42116 34.705Z" stroke="url(#paint0_linear_224_81)" stroke-width="4"/>
<defs>
<linearGradient id="paint0_linear_224_81" x1="65.677" y1="42.4999" x2="2.68457" y2="42.4999" gradientUnits="userSpaceOnUse">
<stop offset="0.197917" stop-color="#E83E36"/>
<stop offset="0.9375" stop-color="#2679F6"/>
</linearGradient>
</defs>
</svg>
