<svg width="32" height="32" viewBox="0 0 32 32" fill="none" xmlns="http://www.w3.org/2000/svg">
<g clip-path="url(#clip0_223_74)">
<path d="M30.8648 3.44789L24.2818 0.280885C23.9094 0.10051 23.4902 0.0406608 23.0822 0.109663C22.6743 0.178665 22.298 0.373088 22.0058 0.665885L9.39676 12.1709L3.90176 8.00388C3.65428 7.81469 3.34825 7.71836 3.03703 7.73171C2.7258 7.74505 2.42913 7.86721 2.19876 8.07688L0.438758 9.68089C0.301196 9.8052 0.191145 9.9569 0.11567 10.1263C0.0401954 10.2956 0.000963392 10.4789 0.00049257 10.6643C2.17479e-05 10.8497 0.0383225 11.0331 0.112936 11.2029C0.18755 11.3726 0.296829 11.5249 0.433758 11.6499L5.19976 15.9989L0.433758 20.3479C0.296829 20.4729 0.18755 20.6252 0.112936 20.7949C0.0383225 20.9646 2.17479e-05 21.1481 0.00049257 21.3335C0.000963392 21.5189 0.0401954 21.7022 0.11567 21.8715C0.191145 22.0409 0.301196 22.1926 0.438758 22.3169L2.19876 23.9209C2.42913 24.1306 2.7258 24.2527 3.03703 24.2661C3.34825 24.2794 3.65428 24.1831 3.90176 23.9939L9.39676 19.8219L22.0118 31.3319C22.303 31.6247 22.6784 31.8191 23.0856 31.8882C23.4927 31.9572 23.9113 31.8973 24.2828 31.7169L30.8718 28.5449C31.2111 28.3819 31.4973 28.1261 31.6972 27.8072C31.8972 27.4883 32.0028 27.1193 32.0018 26.7429V5.24789C32.0018 4.48189 31.5588 3.77889 30.8668 3.44589L30.8648 3.44789ZM24.0048 23.2659L14.4318 15.9999L24.0048 8.73389V23.2659Z" fill="url(#paint0_linear_223_74)"/>
</g>
<defs>
<linearGradient id="paint0_linear_223_74" x1="28.5412" y1="15.9989" x2="0.000488477" y2="15.9989" gradientUnits="userSpaceOnUse">
<stop offset="0.197917" stop-color="#E83E36"/>
<stop offset="0.9375" stop-color="#2679F6"/>
</linearGradient>
<clipPath id="clip0_223_74">
<rect width="32" height="32" fill="white"/>
</clipPath>
</defs>
</svg>
